<?xml version="1.0" encoding="utf-8"?>
<!-- Generator: Adobe Illustrator 24.1.2, SVG Export Plug-In . SVG Version: 6.00 Build 0)  -->
<svg version="1.1" id="Layer_1" xmlns="http://www.w3.org/2000/svg" xmlns:xlink="http://www.w3.org/1999/xlink" x="0px" y="0px"
	 viewBox="0 0 50 50" style="enable-background:new 0 0 50 50;" xml:space="preserve">
<style type="text/css">
	.st0{fill:#FFFFFF;}
</style>
<g>
	<path class="st0" d="M36.2,0H13.8C6.2,0,0,6.2,0,13.8v22.4C0,43.8,6.2,50,13.8,50h22.4C43.8,50,50,43.8,50,36.2V13.8
		C50,6.2,43.8,0,36.2,0z M45.6,36.2c0,5.2-4.2,9.4-9.4,9.4H13.8c-5.2,0-9.4-4.2-9.4-9.4V13.8c0-5.2,4.2-9.4,9.4-9.4h22.4
		c5.2,0,9.4,4.2,9.4,9.4V36.2L45.6,36.2z"/>
	<path class="st0" d="M25,12.1c-7.1,0-12.9,5.8-12.9,12.9S17.9,37.9,25,37.9S37.9,32.1,37.9,25S32.1,12.1,25,12.1z M25,33.5
		c-4.7,0-8.5-3.8-8.5-8.5s3.8-8.5,8.5-8.5s8.5,3.8,8.5,8.5S29.7,33.5,25,33.5z"/>
	<path class="st0" d="M38.4,8.4c-0.8,0-1.7,0.4-2.3,0.9c-0.6,0.6-1,1.4-1,2.3s0.3,1.7,1,2.3c0.6,0.6,1.4,0.9,2.3,0.9
		s1.7-0.4,2.3-0.9c0.6-0.6,1-1.4,1-2.3c0-0.9-0.3-1.7-1-2.3C40.1,8.7,39.3,8.4,38.4,8.4z"/>
</g>
</svg>
