<?xml version="1.0" encoding="utf-8"?>
<!-- Generator: Adobe Illustrator 24.1.2, SVG Export Plug-In . SVG Version: 6.00 Build 0)  -->
<svg version="1.1" id="Layer_1" xmlns="http://www.w3.org/2000/svg" xmlns:xlink="http://www.w3.org/1999/xlink" x="0px" y="0px"
	 viewBox="0 0 50 50" style="enable-background:new 0 0 50 50;" xml:space="preserve">
<style type="text/css">
	.st0{fill:#FFFFFF;}
</style>
<path class="st0" d="M44.1,6.1h-38c-3.3,0-5.9,2.5-5.9,5.7v26.4c0,3.1,2.7,5.7,5.9,5.7h38c3.3,0,5.9-2.5,5.9-5.7V11.8
	C50,8.7,47.3,6.1,44.1,6.1z M44.1,38.9h-38c-0.5,0-0.9-0.3-0.9-0.7V15.3l17.2,14.5c0.4,0.3,0.8,0.5,1.3,0.5h2.9
	c0.5,0,0.9-0.2,1.3-0.5L45,15.3v22.9C45,38.6,44.6,38.9,44.1,38.9z M25.1,25.3L8.4,11.1h33.4L25.1,25.3z"/>
</svg>
