<?xml version="1.0" encoding="utf-8"?>
<!-- Generator: Adobe Illustrator 24.1.2, SVG Export Plug-In . SVG Version: 6.00 Build 0)  -->
<svg version="1.1" id="Layer_1" xmlns="http://www.w3.org/2000/svg" xmlns:xlink="http://www.w3.org/1999/xlink" x="0px" y="0px"
	 viewBox="0 0 50 50" style="enable-background:new 0 0 50 50;" xml:space="preserve">
<style type="text/css">
	.st0{fill:#FFFFFF;}
</style>
<path class="st0" d="M26.6,0c-13.7,0-21,8.8-21,18.4c0,4.4,2.5,10,6.5,11.7c1.1,0.5,1-0.1,2-3.8c0.1-0.3,0-0.6-0.2-0.9
	c-5.7-6.6-1.1-20.1,12-20.1c18.9,0,15.4,26.2,3.3,26.2c-3.1,0-5.5-2.5-4.7-5.5c0.9-3.6,2.6-7.5,2.6-10.1c0-6.6-9.8-5.6-9.8,3.1
	c0,2.7,1,4.5,1,4.5s-3.1,12.7-3.7,15.1c-1,4,0.1,10.5,0.2,11.1c0.1,0.3,0.4,0.4,0.6,0.2c0.3-0.4,4.1-5.8,5.2-9.8
	c0.4-1.4,2-7.2,2-7.2c1,1.9,4.1,3.5,7.3,3.5c9.6,0,16.5-8.4,16.5-18.9C46.2,7.5,37.7,0,26.6,0L26.6,0z"/>
</svg>
